<?xml version="1.0" encoding="UTF-8"?>
<svg xmlns="http://www.w3.org/2000/svg" xmlns:xlink="http://www.w3.org/1999/xlink" width="353pt" height="336pt" viewBox="0 0 353 336" version="1.1">
<g id="surface14">
<path style=" stroke:none;fill-rule:evenodd;fill:rgb(10.913086%,87.09259%,94.978333%);fill-opacity:0.1;" d="M 198.484375 243 C 198.484375 237.832031 196.429688 232.878906 192.777344 229.222656 C 189.121094 225.570312 184.167969 223.515625 179 223.515625 C 173.832031 223.515625 168.878906 225.570312 165.222656 229.222656 C 161.570312 232.878906 159.515625 237.832031 159.515625 243 C 159.515625 248.167969 161.570312 253.121094 165.222656 256.777344 C 168.878906 260.429688 173.832031 262.484375 179 262.484375 C 184.167969 262.484375 189.121094 260.429688 192.777344 256.777344 C 196.429688 253.121094 198.484375 248.167969 198.484375 243 Z M 198.484375 243 "/>
<path style=" stroke:none;fill-rule:evenodd;fill:rgb(23.883057%,67.471313%,70.480347%);fill-opacity:0.1;" d="M 102.222656 146 C 102.222656 143.289062 101.144531 140.6875 99.230469 138.769531 C 97.3125 136.855469 94.710938 135.777344 92 135.777344 C 89.289062 135.777344 86.6875 136.855469 84.769531 138.769531 C 82.855469 140.6875 81.777344 143.289062 81.777344 146 C 81.777344 148.710938 82.855469 151.3125 84.769531 153.230469 C 86.6875 155.144531 89.289062 156.222656 92 156.222656 C 94.710938 156.222656 97.3125 155.144531 99.230469 153.230469 C 101.144531 151.3125 102.222656 148.710938 102.222656 146 Z M 102.222656 146 "/>
<path style=" stroke:none;fill-rule:evenodd;fill:rgb(70.571899%,48.713684%,47.999573%);fill-opacity:0.1;" d="M 161.953125 122 C 161.953125 117.769531 160.273438 113.710938 157.28125 110.71875 C 154.289062 107.726562 150.230469 106.046875 146 106.046875 C 141.769531 106.046875 137.710938 107.726562 134.71875 110.71875 C 131.726562 113.710938 130.046875 117.769531 130.046875 122 C 130.046875 126.230469 131.726562 130.289062 134.71875 133.28125 C 137.710938 136.273438 141.769531 137.953125 146 137.953125 C 150.230469 137.953125 154.289062 136.273438 157.28125 133.28125 C 160.273438 130.289062 161.953125 126.230469 161.953125 122 Z M 161.953125 122 "/>
<path style=" stroke:none;fill-rule:evenodd;fill:rgb(88.955688%,49.403381%,91.769409%);fill-opacity:0.1;" d="M 188.675781 227 C 188.675781 225.496094 188.078125 224.050781 187.015625 222.984375 C 185.949219 221.921875 184.503906 221.324219 183 221.324219 C 181.496094 221.324219 180.050781 221.921875 178.984375 222.984375 C 177.921875 224.050781 177.324219 225.496094 177.324219 227 C 177.324219 228.503906 177.921875 229.949219 178.984375 231.015625 C 180.050781 232.078125 181.496094 232.675781 183 232.675781 C 184.503906 232.675781 185.949219 232.078125 187.015625 231.015625 C 188.078125 229.949219 188.675781 228.503906 188.675781 227 Z M 188.675781 227 "/>
<path style=" stroke:none;fill-rule:evenodd;fill:rgb(50.183105%,46.081543%,99.562073%);fill-opacity:0.1;" d="M 278.683594 74 C 278.683594 65.066406 275.136719 56.5 268.820312 50.179688 C 262.5 43.863281 253.933594 40.316406 245 40.316406 C 236.066406 40.316406 227.5 43.863281 221.179688 50.179688 C 214.863281 56.5 211.316406 65.066406 211.316406 74 C 211.316406 82.933594 214.863281 91.5 221.179688 97.820312 C 227.5 104.136719 236.066406 107.683594 245 107.683594 C 253.933594 107.683594 262.5 104.136719 268.820312 97.820312 C 275.136719 91.5 278.683594 82.933594 278.683594 74 Z M 278.683594 74 "/>
<path style=" stroke:none;fill-rule:evenodd;fill:rgb(81.837463%,56.338501%,79.724121%);fill-opacity:0.1;" d="M 279.371094 241 C 279.371094 231.355469 275.539062 222.101562 268.71875 215.28125 C 261.898438 208.460938 252.644531 204.628906 243 204.628906 C 233.355469 204.628906 224.101562 208.460938 217.28125 215.28125 C 210.460938 222.101562 206.628906 231.355469 206.628906 241 C 206.628906 250.644531 210.460938 259.898438 217.28125 266.71875 C 224.101562 273.539062 233.355469 277.371094 243 277.371094 C 252.644531 277.371094 261.898438 273.539062 268.71875 266.71875 C 275.539062 259.898438 279.371094 250.644531 279.371094 241 Z M 279.371094 241 "/>
<path style=" stroke:none;fill-rule:evenodd;fill:rgb(97.65625%,2.615356%,9.049988%);fill-opacity:0.1;" d="M 234.050781 95 C 234.050781 89.945312 232.046875 85.101562 228.472656 81.527344 C 224.898438 77.953125 220.054688 75.949219 215 75.949219 C 209.945312 75.949219 205.101562 77.953125 201.527344 81.527344 C 197.953125 85.101562 195.949219 89.945312 195.949219 95 C 195.949219 100.054688 197.953125 104.898438 201.527344 108.472656 C 205.101562 112.046875 209.945312 114.050781 215 114.050781 C 220.054688 114.050781 224.898438 112.046875 228.472656 108.472656 C 232.046875 104.898438 234.050781 100.054688 234.050781 95 Z M 234.050781 95 "/>
<path style=" stroke:none;fill-rule:evenodd;fill:rgb(48.373413%,56.892395%,29.447937%);fill-opacity:0.1;" d="M 137.042969 206 C 137.042969 201.746094 135.351562 197.664062 132.34375 194.65625 C 129.335938 191.648438 125.253906 189.957031 121 189.957031 C 116.746094 189.957031 112.664062 191.648438 109.65625 194.65625 C 106.648438 197.664062 104.957031 201.746094 104.957031 206 C 104.957031 210.253906 106.648438 214.335938 109.65625 217.34375 C 112.664062 220.351562 116.746094 222.042969 121 222.042969 C 125.253906 222.042969 129.335938 220.351562 132.34375 217.34375 C 135.351562 214.335938 137.042969 210.253906 137.042969 206 Z M 137.042969 206 "/>
<path style=" stroke:none;fill-rule:evenodd;fill:rgb(79.182434%,42.59491%,45.51239%);fill-opacity:0.1;" d="M 160.960938 224 C 160.960938 219.238281 159.070312 214.667969 155.699219 211.300781 C 152.332031 207.929688 147.761719 206.039062 143 206.039062 C 138.238281 206.039062 133.667969 207.929688 130.300781 211.300781 C 126.929688 214.667969 125.039062 219.238281 125.039062 224 C 125.039062 228.761719 126.929688 233.332031 130.300781 236.699219 C 133.667969 240.070312 138.238281 241.960938 143 241.960938 C 147.761719 241.960938 152.332031 240.070312 155.699219 236.699219 C 159.070312 233.332031 160.960938 228.761719 160.960938 224 Z M 160.960938 224 "/>
<path style=" stroke:none;fill-rule:evenodd;fill:rgb(44.363403%,98.078918%,91.882324%);fill-opacity:0.1;" d="M 71.292969 201 C 71.292969 195.617188 69.15625 190.457031 65.347656 186.652344 C 61.542969 182.84375 56.382812 180.707031 51 180.707031 C 45.617188 180.707031 40.457031 182.84375 36.652344 186.652344 C 32.84375 190.457031 30.707031 195.617188 30.707031 201 C 30.707031 206.382812 32.84375 211.542969 36.652344 215.347656 C 40.457031 219.15625 45.617188 221.292969 51 221.292969 C 56.382812 221.292969 61.542969 219.15625 65.347656 215.347656 C 69.15625 211.542969 71.292969 206.382812 71.292969 201 Z M 71.292969 201 "/>
<path style=" stroke:none;fill-rule:evenodd;fill:rgb(71.47522%,64.103699%,21.881104%);fill-opacity:0.1;" d="M 260.855469 165 C 260.855469 156.816406 257.605469 148.96875 251.816406 143.183594 C 246.03125 137.394531 238.183594 134.144531 230 134.144531 C 221.816406 134.144531 213.96875 137.394531 208.183594 143.183594 C 202.394531 148.96875 199.144531 156.816406 199.144531 165 C 199.144531 173.183594 202.394531 181.03125 208.183594 186.816406 C 213.96875 192.605469 221.816406 195.855469 230 195.855469 C 238.183594 195.855469 246.03125 192.605469 251.816406 186.816406 C 257.605469 181.03125 260.855469 173.183594 260.855469 165 Z M 260.855469 165 "/>
<path style=" stroke:none;fill-rule:evenodd;fill:rgb(89.428711%,23.683167%,0.846863%);fill-opacity:0.1;" d="M 302.597656 244 C 302.597656 234.292969 298.742188 224.984375 291.878906 218.121094 C 285.015625 211.257812 275.707031 207.402344 266 207.402344 C 256.292969 207.402344 246.984375 211.257812 240.121094 218.121094 C 233.257812 224.984375 229.402344 234.292969 229.402344 244 C 229.402344 253.707031 233.257812 263.015625 240.121094 269.878906 C 246.984375 276.742188 256.292969 280.597656 266 280.597656 C 275.707031 280.597656 285.015625 276.742188 291.878906 269.878906 C 298.742188 263.015625 302.597656 253.707031 302.597656 244 Z M 302.597656 244 "/>
<path style=" stroke:none;fill-rule:evenodd;fill:rgb(91.73584%,74.534607%,76.846313%);fill-opacity:0.1;" d="M 258.679688 162 C 258.679688 154.660156 255.761719 147.617188 250.570312 142.429688 C 245.382812 137.238281 238.339844 134.320312 231 134.320312 C 223.660156 134.320312 216.617188 137.238281 211.429688 142.429688 C 206.238281 147.617188 203.320312 154.660156 203.320312 162 C 203.320312 169.339844 206.238281 176.382812 211.429688 181.570312 C 216.617188 186.761719 223.660156 189.679688 231 189.679688 C 238.339844 189.679688 245.382812 186.761719 250.570312 181.570312 C 255.761719 176.382812 258.679688 169.339844 258.679688 162 Z M 258.679688 162 "/>
<path style=" stroke:none;fill-rule:evenodd;fill:rgb(73.097229%,89.596558%,68.952942%);fill-opacity:0.1;" d="M 255.730469 215 C 255.730469 211.359375 254.285156 207.867188 251.710938 205.289062 C 249.132812 202.714844 245.640625 201.269531 242 201.269531 C 238.359375 201.269531 234.867188 202.714844 232.289062 205.289062 C 229.714844 207.867188 228.269531 211.359375 228.269531 215 C 228.269531 218.640625 229.714844 222.132812 232.289062 224.710938 C 234.867188 227.285156 238.359375 228.730469 242 228.730469 C 245.640625 228.730469 249.132812 227.285156 251.710938 224.710938 C 254.285156 222.132812 255.730469 218.640625 255.730469 215 Z M 255.730469 215 "/>
<path style=" stroke:none;fill-rule:evenodd;fill:rgb(9.092712%,3.483582%,83.398438%);fill-opacity:0.1;" d="M 94.75 147 C 94.75 141.230469 92.460938 135.699219 88.378906 131.621094 C 84.300781 127.539062 78.769531 125.25 73 125.25 C 67.230469 125.25 61.699219 127.539062 57.621094 131.621094 C 53.539062 135.699219 51.25 141.230469 51.25 147 C 51.25 152.769531 53.539062 158.300781 57.621094 162.378906 C 61.699219 166.460938 67.230469 168.75 73 168.75 C 78.769531 168.75 84.300781 166.460938 88.378906 162.378906 C 92.460938 158.300781 94.75 152.769531 94.75 147 Z M 94.75 147 "/>
<path style=" stroke:none;fill-rule:evenodd;fill:rgb(18.258667%,22.012329%,56.027222%);fill-opacity:0.1;" d="M 339.398438 250 C 339.398438 240.082031 335.457031 230.570312 328.445312 223.554688 C 321.429688 216.542969 311.917969 212.601562 302 212.601562 C 292.082031 212.601562 282.570312 216.542969 275.554688 223.554688 C 268.542969 230.570312 264.601562 240.082031 264.601562 250 C 264.601562 259.917969 268.542969 269.429688 275.554688 276.445312 C 282.570312 283.457031 292.082031 287.398438 302 287.398438 C 311.917969 287.398438 321.429688 283.457031 328.445312 276.445312 C 335.457031 269.429688 339.398438 259.917969 339.398438 250 Z M 339.398438 250 "/>
<path style=" stroke:none;fill-rule:evenodd;fill:rgb(79.872131%,0.334167%,10.928345%);fill-opacity:0.1;" d="M 335.203125 220 C 335.203125 213.050781 332.441406 206.386719 327.527344 201.472656 C 322.613281 196.558594 315.949219 193.796875 309 193.796875 C 302.050781 193.796875 295.386719 196.558594 290.472656 201.472656 C 285.558594 206.386719 282.796875 213.050781 282.796875 220 C 282.796875 226.949219 285.558594 233.613281 290.472656 238.527344 C 295.386719 243.441406 302.050781 246.203125 309 246.203125 C 315.949219 246.203125 322.613281 243.441406 327.527344 238.527344 C 332.441406 233.613281 335.203125 226.949219 335.203125 220 Z M 335.203125 220 "/>
<path style=" stroke:none;fill-rule:evenodd;fill:rgb(59.539795%,83.465576%,57.473755%);fill-opacity:0.1;" d="M 325.761719 268 C 325.761719 256.660156 321.253906 245.78125 313.234375 237.765625 C 305.21875 229.746094 294.339844 225.238281 283 225.238281 C 271.660156 225.238281 260.78125 229.746094 252.765625 237.765625 C 244.746094 245.78125 240.238281 256.660156 240.238281 268 C 240.238281 279.339844 244.746094 290.21875 252.765625 298.234375 C 260.78125 306.253906 271.660156 310.761719 283 310.761719 C 294.339844 310.761719 305.21875 306.253906 313.234375 298.234375 C 321.253906 290.21875 325.761719 279.339844 325.761719 268 Z M 325.761719 268 "/>
<path style=" stroke:none;fill-rule:evenodd;fill:rgb(53.559875%,44.345093%,36.196899%);fill-opacity:0.1;" d="M 207.742188 204 C 207.742188 192.929688 203.34375 182.3125 195.515625 174.484375 C 187.6875 166.65625 177.070312 162.257812 166 162.257812 C 154.929688 162.257812 144.3125 166.65625 136.484375 174.484375 C 128.65625 182.3125 124.257812 192.929688 124.257812 204 C 124.257812 215.070312 128.65625 225.6875 136.484375 233.515625 C 144.3125 241.34375 154.929688 245.742188 166 245.742188 C 177.070312 245.742188 187.6875 241.34375 195.515625 233.515625 C 203.34375 225.6875 207.742188 215.070312 207.742188 204 Z M 207.742188 204 "/>
<path style=" stroke:none;fill-rule:evenodd;fill:rgb(71.086121%,99.822998%,29.289246%);fill-opacity:0.1;" d="M 225.921875 40 C 225.921875 31.269531 222.453125 22.894531 216.28125 16.71875 C 210.105469 10.546875 201.730469 7.078125 193 7.078125 C 184.269531 7.078125 175.894531 10.546875 169.71875 16.71875 C 163.546875 22.894531 160.078125 31.269531 160.078125 40 C 160.078125 48.730469 163.546875 57.105469 169.71875 63.28125 C 175.894531 69.453125 184.269531 72.921875 193 72.921875 C 201.730469 72.921875 210.105469 69.453125 216.28125 63.28125 C 222.453125 57.105469 225.921875 48.730469 225.921875 40 Z M 225.921875 40 "/>
<path style=" stroke:none;fill-rule:evenodd;fill:rgb(32.337952%,95.903015%,79.743958%);fill-opacity:0.1;" d="M 137.25 131 C 137.25 124.570312 134.695312 118.398438 130.148438 113.851562 C 125.601562 109.304688 119.429688 106.75 113 106.75 C 106.570312 106.75 100.398438 109.304688 95.851562 113.851562 C 91.304688 118.398438 88.75 124.570312 88.75 131 C 88.75 137.429688 91.304688 143.601562 95.851562 148.148438 C 100.398438 152.695312 106.570312 155.25 113 155.25 C 119.429688 155.25 125.601562 152.695312 130.148438 148.148438 C 134.695312 143.601562 137.25 137.429688 137.25 131 Z M 137.25 131 "/>
<path style=" stroke:none;fill-rule:evenodd;fill:rgb(13.865662%,7.330322%,61.262512%);fill-opacity:0.1;" d="M 235.890625 39 C 235.890625 37.171875 235.164062 35.421875 233.871094 34.128906 C 232.578125 32.835938 230.828125 32.109375 229 32.109375 C 227.171875 32.109375 225.421875 32.835938 224.128906 34.128906 C 222.835938 35.421875 222.109375 37.171875 222.109375 39 C 222.109375 40.828125 222.835938 42.578125 224.128906 43.871094 C 225.421875 45.164062 227.171875 45.890625 229 45.890625 C 230.828125 45.890625 232.578125 45.164062 233.871094 43.871094 C 235.164062 42.578125 235.890625 40.828125 235.890625 39 Z M 235.890625 39 "/>
<path style=" stroke:none;fill-rule:evenodd;fill:rgb(31.768799%,83.837891%,72.677612%);fill-opacity:0.1;" d="M 213.933594 49 C 213.933594 42.121094 211.203125 35.527344 206.339844 30.660156 C 201.472656 25.796875 194.878906 23.066406 188 23.066406 C 181.121094 23.066406 174.527344 25.796875 169.660156 30.660156 C 164.796875 35.527344 162.066406 42.121094 162.066406 49 C 162.066406 55.878906 164.796875 62.472656 169.660156 67.339844 C 174.527344 72.203125 181.121094 74.933594 188 74.933594 C 194.878906 74.933594 201.472656 72.203125 206.339844 67.339844 C 211.203125 62.472656 213.933594 55.878906 213.933594 49 Z M 213.933594 49 "/>
<path style=" stroke:none;fill-rule:evenodd;fill:rgb(9.370422%,60.700989%,5.7724%);fill-opacity:0.1;" d="M 190.496094 283 C 190.496094 278.625 188.757812 274.429688 185.664062 271.335938 C 182.570312 268.242188 178.375 266.503906 174 266.503906 C 169.625 266.503906 165.429688 268.242188 162.335938 271.335938 C 159.242188 274.429688 157.503906 278.625 157.503906 283 C 157.503906 287.375 159.242188 291.570312 162.335938 294.664062 C 165.429688 297.757812 169.625 299.496094 174 299.496094 C 178.375 299.496094 182.570312 297.757812 185.664062 294.664062 C 188.757812 291.570312 190.496094 287.375 190.496094 283 Z M 190.496094 283 "/>
<path style=" stroke:none;fill-rule:evenodd;fill:rgb(3.009033%,74.716187%,17.422485%);fill-opacity:0.1;" d="M 83.984375 294 C 83.984375 291.882812 83.144531 289.851562 81.644531 288.355469 C 80.148438 286.855469 78.117188 286.015625 76 286.015625 C 73.882812 286.015625 71.851562 286.855469 70.355469 288.355469 C 68.855469 289.851562 68.015625 291.882812 68.015625 294 C 68.015625 296.117188 68.855469 298.148438 70.355469 299.644531 C 71.851562 301.144531 73.882812 301.984375 76 301.984375 C 78.117188 301.984375 80.148438 301.144531 81.644531 299.644531 C 83.144531 298.148438 83.984375 296.117188 83.984375 294 Z M 83.984375 294 "/>
<path style=" stroke:none;fill-rule:evenodd;fill:rgb(1.791382%,96.511841%,87.651062%);fill-opacity:0.1;" d="M 176.347656 171 C 176.347656 167.992188 175.152344 165.105469 173.023438 162.976562 C 170.894531 160.847656 168.007812 159.652344 165 159.652344 C 161.992188 159.652344 159.105469 160.847656 156.976562 162.976562 C 154.847656 165.105469 153.652344 167.992188 153.652344 171 C 153.652344 174.007812 154.847656 176.894531 156.976562 179.023438 C 159.105469 181.152344 161.992188 182.347656 165 182.347656 C 168.007812 182.347656 170.894531 181.152344 173.023438 179.023438 C 175.152344 176.894531 176.347656 174.007812 176.347656 171 Z M 176.347656 171 "/>
<path style=" stroke:none;fill-rule:evenodd;fill:rgb(80.656433%,55.387878%,69.535828%);fill-opacity:0.1;" d="M 110.195312 72 C 110.195312 70.621094 109.644531 69.300781 108.671875 68.328125 C 107.699219 67.355469 106.378906 66.804688 105 66.804688 C 103.621094 66.804688 102.300781 67.355469 101.328125 68.328125 C 100.355469 69.300781 99.804688 70.621094 99.804688 72 C 99.804688 73.378906 100.355469 74.699219 101.328125 75.671875 C 102.300781 76.644531 103.621094 77.195312 105 77.195312 C 106.378906 77.195312 107.699219 76.644531 108.671875 75.671875 C 109.644531 74.699219 110.195312 73.378906 110.195312 72 Z M 110.195312 72 "/>
<path style=" stroke:none;fill-rule:evenodd;fill:rgb(32.720947%,73.286438%,23.199463%);fill-opacity:0.1;" d="M 219.046875 166 C 219.046875 159.09375 216.300781 152.46875 211.417969 147.582031 C 206.53125 142.699219 199.90625 139.953125 193 139.953125 C 186.09375 139.953125 179.46875 142.699219 174.582031 147.582031 C 169.699219 152.46875 166.953125 159.09375 166.953125 166 C 166.953125 172.90625 169.699219 179.53125 174.582031 184.417969 C 179.46875 189.300781 186.09375 192.046875 193 192.046875 C 199.90625 192.046875 206.53125 189.300781 211.417969 184.417969 C 216.300781 179.53125 219.046875 172.90625 219.046875 166 Z M 219.046875 166 "/>
<path style=" stroke:none;fill-rule:evenodd;fill:rgb(7.815552%,35.38208%,24.525452%);fill-opacity:0.1;" d="M 82.980469 224 C 82.980469 213.925781 78.980469 204.265625 71.855469 197.144531 C 64.734375 190.019531 55.074219 186.019531 45 186.019531 C 34.925781 186.019531 25.265625 190.019531 18.144531 197.144531 C 11.019531 204.265625 7.019531 213.925781 7.019531 224 C 7.019531 234.074219 11.019531 243.734375 18.144531 250.855469 C 25.265625 257.980469 34.925781 261.980469 45 261.980469 C 55.074219 261.980469 64.734375 257.980469 71.855469 250.855469 C 78.980469 243.734375 82.980469 234.074219 82.980469 224 Z M 82.980469 224 "/>
<path style=" stroke:none;fill-rule:evenodd;fill:rgb(68.965149%,64.404297%,70.225525%);fill-opacity:0.1;" d="M 288.078125 229 C 288.078125 222.878906 285.648438 217.007812 281.320312 212.679688 C 276.992188 208.351562 271.121094 205.921875 265 205.921875 C 258.878906 205.921875 253.007812 208.351562 248.679688 212.679688 C 244.351562 217.007812 241.921875 222.878906 241.921875 229 C 241.921875 235.121094 244.351562 240.992188 248.679688 245.320312 C 253.007812 249.648438 258.878906 252.078125 265 252.078125 C 271.121094 252.078125 276.992188 249.648438 281.320312 245.320312 C 285.648438 240.992188 288.078125 235.121094 288.078125 229 Z M 288.078125 229 "/>
<path style=" stroke:none;fill-rule:evenodd;fill:rgb(70.452881%,63.648987%,4.655457%);fill-opacity:0.1;" d="M 242.425781 35 C 242.425781 27.460938 239.429688 20.230469 234.101562 14.898438 C 228.769531 9.570312 221.539062 6.574219 214 6.574219 C 206.460938 6.574219 199.230469 9.570312 193.898438 14.898438 C 188.570312 20.230469 185.574219 27.460938 185.574219 35 C 185.574219 42.539062 188.570312 49.769531 193.898438 55.101562 C 199.230469 60.429688 206.460938 63.425781 214 63.425781 C 221.539062 63.425781 228.769531 60.429688 234.101562 55.101562 C 239.429688 49.769531 242.425781 42.539062 242.425781 35 Z M 242.425781 35 "/>
<path style=" stroke:none;fill-rule:evenodd;fill:rgb(14.254761%,43.22052%,16.293335%);fill-opacity:0.1;" d="M 105.5 263 C 105.5 254.378906 102.078125 246.113281 95.980469 240.019531 C 89.886719 233.921875 81.621094 230.5 73 230.5 C 64.378906 230.5 56.113281 233.921875 50.019531 240.019531 C 43.921875 246.113281 40.5 254.378906 40.5 263 C 40.5 271.621094 43.921875 279.886719 50.019531 285.980469 C 56.113281 292.078125 64.378906 295.5 73 295.5 C 81.621094 295.5 89.886719 292.078125 95.980469 285.980469 C 102.078125 279.886719 105.5 271.621094 105.5 263 Z M 105.5 263 "/>
<path style=" stroke:none;fill-rule:evenodd;fill:rgb(43.388367%,86.213684%,21.72699%);fill-opacity:0.1;" d="M 66.804688 52 C 66.804688 48.339844 65.347656 44.828125 62.761719 42.238281 C 60.171875 39.652344 56.660156 38.195312 53 38.195312 C 49.339844 38.195312 45.828125 39.652344 43.238281 42.238281 C 40.652344 44.828125 39.195312 48.339844 39.195312 52 C 39.195312 55.660156 40.652344 59.171875 43.238281 61.761719 C 45.828125 64.347656 49.339844 65.804688 53 65.804688 C 56.660156 65.804688 60.171875 64.347656 62.761719 61.761719 C 65.347656 59.171875 66.804688 55.660156 66.804688 52 Z M 66.804688 52 "/>
<path style=" stroke:none;fill-rule:evenodd;fill:rgb(30.990601%,76.757812%,82.403564%);fill-opacity:0.1;" d="M 117.875 142 C 117.875 132.484375 114.097656 123.359375 107.367188 116.632812 C 100.640625 109.902344 91.515625 106.125 82 106.125 C 72.484375 106.125 63.359375 109.902344 56.632812 116.632812 C 49.902344 123.359375 46.125 132.484375 46.125 142 C 46.125 151.515625 49.902344 160.640625 56.632812 167.367188 C 63.359375 174.097656 72.484375 177.875 82 177.875 C 91.515625 177.875 100.640625 174.097656 107.367188 167.367188 C 114.097656 160.640625 117.875 151.515625 117.875 142 Z M 117.875 142 "/>
<path style=" stroke:none;fill-rule:evenodd;fill:rgb(88.713074%,21.368408%,61.946106%);fill-opacity:0.1;" d="M 294.929688 215 C 294.929688 210.773438 293.25 206.722656 290.265625 203.734375 C 287.277344 200.75 283.226562 199.070312 279 199.070312 C 274.773438 199.070312 270.722656 200.75 267.734375 203.734375 C 264.75 206.722656 263.070312 210.773438 263.070312 215 C 263.070312 219.226562 264.75 223.277344 267.734375 226.265625 C 270.722656 229.25 274.773438 230.929688 279 230.929688 C 283.226562 230.929688 287.277344 229.25 290.265625 226.265625 C 293.25 223.277344 294.929688 219.226562 294.929688 215 Z M 294.929688 215 "/>
<path style=" stroke:none;fill-rule:evenodd;fill:rgb(5.351257%,15.408325%,82.989502%);fill-opacity:0.1;" d="M 321.371094 257 C 321.371094 255.574219 320.804688 254.207031 319.796875 253.203125 C 318.792969 252.195312 317.425781 251.628906 316 251.628906 C 314.574219 251.628906 313.207031 252.195312 312.203125 253.203125 C 311.195312 254.207031 310.628906 255.574219 310.628906 257 C 310.628906 258.425781 311.195312 259.792969 312.203125 260.796875 C 313.207031 261.804688 314.574219 262.371094 316 262.371094 C 317.425781 262.371094 318.792969 261.804688 319.796875 260.796875 C 320.804688 259.792969 321.371094 258.425781 321.371094 257 Z M 321.371094 257 "/>
<path style=" stroke:none;fill-rule:evenodd;fill:rgb(40.524292%,55.279541%,21.565247%);fill-opacity:0.1;" d="M 216.402344 254 C 216.402344 245.671875 213.09375 237.683594 207.203125 231.796875 C 201.316406 225.90625 193.328125 222.597656 185 222.597656 C 176.671875 222.597656 168.683594 225.90625 162.796875 231.796875 C 156.90625 237.683594 153.597656 245.671875 153.597656 254 C 153.597656 262.328125 156.90625 270.316406 162.796875 276.203125 C 168.683594 282.09375 176.671875 285.402344 185 285.402344 C 193.328125 285.402344 201.316406 282.09375 207.203125 276.203125 C 213.09375 270.316406 216.402344 262.328125 216.402344 254 Z M 216.402344 254 "/>
<path style=" stroke:none;fill-rule:evenodd;fill:rgb(55.903625%,63.334656%,61.573792%);fill-opacity:0.1;" d="M 352.121094 236 C 352.121094 225.625 348 215.675781 340.664062 208.335938 C 333.324219 201 323.375 196.878906 313 196.878906 C 302.625 196.878906 292.675781 201 285.335938 208.335938 C 278 215.675781 273.878906 225.625 273.878906 236 C 273.878906 246.375 278 256.324219 285.335938 263.664062 C 292.675781 271 302.625 275.121094 313 275.121094 C 323.375 275.121094 333.324219 271 340.664062 263.664062 C 348 256.324219 352.121094 246.375 352.121094 236 Z M 352.121094 236 "/>
<path style=" stroke:none;fill-rule:evenodd;fill:rgb(62.255859%,98.677063%,95.019531%);fill-opacity:0.1;" d="M 202.421875 95 C 202.421875 86.933594 199.214844 79.195312 193.511719 73.488281 C 187.804688 67.785156 180.066406 64.578125 172 64.578125 C 163.933594 64.578125 156.195312 67.785156 150.488281 73.488281 C 144.785156 79.195312 141.578125 86.933594 141.578125 95 C 141.578125 103.066406 144.785156 110.804688 150.488281 116.511719 C 156.195312 122.214844 163.933594 125.421875 172 125.421875 C 180.066406 125.421875 187.804688 122.214844 193.511719 116.511719 C 199.214844 110.804688 202.421875 103.066406 202.421875 95 Z M 202.421875 95 "/>
<path style=" stroke:none;fill-rule:evenodd;fill:rgb(76.216125%,60.583496%,73.468018%);fill-opacity:0.1;" d="M 169.976562 45 C 169.976562 44.210938 169.664062 43.453125 169.105469 42.894531 C 168.546875 42.335938 167.789062 42.023438 167 42.023438 C 166.210938 42.023438 165.453125 42.335938 164.894531 42.894531 C 164.335938 43.453125 164.023438 44.210938 164.023438 45 C 164.023438 45.789062 164.335938 46.546875 164.894531 47.105469 C 165.453125 47.664062 166.210938 47.976562 167 47.976562 C 167.789062 47.976562 168.546875 47.664062 169.105469 47.105469 C 169.664062 46.546875 169.976562 45.789062 169.976562 45 Z M 169.976562 45 "/>
<path style=" stroke:none;fill-rule:evenodd;fill:rgb(86.906433%,50.552368%,14.123535%);fill-opacity:0.1;" d="M 290.851562 297 C 290.851562 288.023438 287.285156 279.410156 280.9375 273.0625 C 274.589844 266.714844 265.976562 263.148438 257 263.148438 C 248.023438 263.148438 239.410156 266.714844 233.0625 273.0625 C 226.714844 279.410156 223.148438 288.023438 223.148438 297 C 223.148438 305.976562 226.714844 314.589844 233.0625 320.9375 C 239.410156 327.285156 248.023438 330.851562 257 330.851562 C 265.976562 330.851562 274.589844 327.285156 280.9375 320.9375 C 287.285156 314.589844 290.851562 305.976562 290.851562 297 Z M 290.851562 297 "/>
<path style=" stroke:none;fill-rule:evenodd;fill:rgb(28.578186%,79.933167%,79.814148%);fill-opacity:0.1;" d="M 131.9375 95 C 131.9375 86.792969 128.679688 78.925781 122.875 73.125 C 117.074219 67.320312 109.207031 64.0625 101 64.0625 C 92.792969 64.0625 84.925781 67.320312 79.125 73.125 C 73.320312 78.925781 70.0625 86.792969 70.0625 95 C 70.0625 103.207031 73.320312 111.074219 79.125 116.875 C 84.925781 122.679688 92.792969 125.9375 101 125.9375 C 109.207031 125.9375 117.074219 122.679688 122.875 116.875 C 128.679688 111.074219 131.9375 103.207031 131.9375 95 Z M 131.9375 95 "/>
<path style=" stroke:none;fill-rule:evenodd;fill:rgb(93.989563%,7.064819%,74.401855%);fill-opacity:0.1;" d="M 257.066406 293 C 257.066406 291.390625 256.429688 289.847656 255.289062 288.710938 C 254.152344 287.570312 252.609375 286.933594 251 286.933594 C 249.390625 286.933594 247.847656 287.570312 246.710938 288.710938 C 245.570312 289.847656 244.933594 291.390625 244.933594 293 C 244.933594 294.609375 245.570312 296.152344 246.710938 297.289062 C 247.847656 298.429688 249.390625 299.066406 251 299.066406 C 252.609375 299.066406 254.152344 298.429688 255.289062 297.289062 C 256.429688 296.152344 257.066406 294.609375 257.066406 293 Z M 257.066406 293 "/>
<path style=" stroke:none;fill-rule:evenodd;fill:rgb(75.624084%,43.112183%,12.57782%);fill-opacity:0.1;" d="M 341.519531 165 C 341.519531 160.617188 339.777344 156.417969 336.679688 153.320312 C 333.582031 150.222656 329.382812 148.480469 325 148.480469 C 320.617188 148.480469 316.417969 150.222656 313.320312 153.320312 C 310.222656 156.417969 308.480469 160.617188 308.480469 165 C 308.480469 169.382812 310.222656 173.582031 313.320312 176.679688 C 316.417969 179.777344 320.617188 181.519531 325 181.519531 C 329.382812 181.519531 333.582031 179.777344 336.679688 176.679688 C 339.777344 173.582031 341.519531 169.382812 341.519531 165 Z M 341.519531 165 "/>
<path style=" stroke:none;fill-rule:evenodd;fill:rgb(0.154114%,38.693237%,67.068481%);fill-opacity:0.1;" d="M 158.058594 131 C 158.058594 123.292969 154.996094 115.902344 149.546875 110.453125 C 144.097656 105.003906 136.707031 101.941406 129 101.941406 C 121.292969 101.941406 113.902344 105.003906 108.453125 110.453125 C 103.003906 115.902344 99.941406 123.292969 99.941406 131 C 99.941406 138.707031 103.003906 146.097656 108.453125 151.546875 C 113.902344 156.996094 121.292969 160.058594 129 160.058594 C 136.707031 160.058594 144.097656 156.996094 149.546875 151.546875 C 154.996094 146.097656 158.058594 138.707031 158.058594 131 Z M 158.058594 131 "/>
<path style=" stroke:none;fill-rule:evenodd;fill:rgb(17.736816%,48.086548%,60.353088%);fill-opacity:0.1;" d="M 324.34375 162 C 324.34375 159.523438 323.359375 157.144531 321.605469 155.394531 C 319.855469 153.640625 317.476562 152.65625 315 152.65625 C 312.523438 152.65625 310.144531 153.640625 308.394531 155.394531 C 306.640625 157.144531 305.65625 159.523438 305.65625 162 C 305.65625 164.476562 306.640625 166.855469 308.394531 168.605469 C 310.144531 170.359375 312.523438 171.34375 315 171.34375 C 317.476562 171.34375 319.855469 170.359375 321.605469 168.605469 C 323.359375 166.855469 324.34375 164.476562 324.34375 162 Z M 324.34375 162 "/>
<path style=" stroke:none;fill-rule:evenodd;fill:rgb(64.68811%,64.949036%,94.841003%);fill-opacity:0.1;" d="M 265.675781 277 C 265.675781 275.757812 265.183594 274.570312 264.308594 273.691406 C 263.429688 272.816406 262.242188 272.324219 261 272.324219 C 259.757812 272.324219 258.570312 272.816406 257.691406 273.691406 C 256.816406 274.570312 256.324219 275.757812 256.324219 277 C 256.324219 278.242188 256.816406 279.429688 257.691406 280.308594 C 258.570312 281.183594 259.757812 281.675781 261 281.675781 C 262.242188 281.675781 263.429688 281.183594 264.308594 280.308594 C 265.183594 279.429688 265.675781 278.242188 265.675781 277 Z M 265.675781 277 "/>
<path style=" stroke:none;fill-rule:evenodd;fill:rgb(67.578125%,30.680847%,89.430237%);fill-opacity:0.1;" d="M 198.730469 209 C 198.730469 202.707031 196.230469 196.667969 191.78125 192.21875 C 187.332031 187.769531 181.292969 185.269531 175 185.269531 C 168.707031 185.269531 162.667969 187.769531 158.21875 192.21875 C 153.769531 196.667969 151.269531 202.707031 151.269531 209 C 151.269531 215.292969 153.769531 221.332031 158.21875 225.78125 C 162.667969 230.230469 168.707031 232.730469 175 232.730469 C 181.292969 232.730469 187.332031 230.230469 191.78125 225.78125 C 196.230469 221.332031 198.730469 215.292969 198.730469 209 Z M 198.730469 209 "/>
<path style=" stroke:none;fill-rule:evenodd;fill:rgb(10.954285%,72.233582%,42.817688%);fill-opacity:0.1;" d="M 268.4375 48 C 268.4375 40.191406 265.335938 32.707031 259.816406 27.183594 C 254.292969 21.664062 246.808594 18.5625 239 18.5625 C 231.191406 18.5625 223.707031 21.664062 218.183594 27.183594 C 212.664062 32.707031 209.5625 40.191406 209.5625 48 C 209.5625 55.808594 212.664062 63.292969 218.183594 68.816406 C 223.707031 74.335938 231.191406 77.4375 239 77.4375 C 246.808594 77.4375 254.292969 74.335938 259.816406 68.816406 C 265.335938 63.292969 268.4375 55.808594 268.4375 48 Z M 268.4375 48 "/>
<path style=" stroke:none;fill-rule:evenodd;fill:rgb(64.743042%,21.231079%,99.569702%);fill-opacity:0.1;" d="M 120.957031 151 C 120.957031 142.523438 117.589844 134.394531 111.597656 128.402344 C 105.605469 122.410156 97.476562 119.042969 89 119.042969 C 80.523438 119.042969 72.394531 122.410156 66.402344 128.402344 C 60.410156 134.394531 57.042969 142.523438 57.042969 151 C 57.042969 159.476562 60.410156 167.605469 66.402344 173.597656 C 72.394531 179.589844 80.523438 182.957031 89 182.957031 C 97.476562 182.957031 105.605469 179.589844 111.597656 173.597656 C 117.589844 167.605469 120.957031 159.476562 120.957031 151 Z M 120.957031 151 "/>
<path style=" stroke:none;fill-rule:evenodd;fill:rgb(10.636902%,64.025879%,77.990723%);fill-opacity:0.1;" d="M 299.746094 282 C 299.746094 271.457031 295.558594 261.347656 288.105469 253.894531 C 280.652344 246.441406 270.542969 242.253906 260 242.253906 C 249.457031 242.253906 239.347656 246.441406 231.894531 253.894531 C 224.441406 261.347656 220.253906 271.457031 220.253906 282 C 220.253906 292.542969 224.441406 302.652344 231.894531 310.105469 C 239.347656 317.558594 249.457031 321.746094 260 321.746094 C 270.542969 321.746094 280.652344 317.558594 288.105469 310.105469 C 295.558594 302.652344 299.746094 292.542969 299.746094 282 Z M 299.746094 282 "/>
<path style=" stroke:none;fill-rule:evenodd;fill:rgb(65.103149%,47.973633%,60.202026%);fill-opacity:0.1;" d="M 332.898438 83 C 332.898438 75.335938 329.855469 67.984375 324.433594 62.566406 C 319.015625 57.144531 311.664062 54.101562 304 54.101562 C 296.335938 54.101562 288.984375 57.144531 283.566406 62.566406 C 278.144531 67.984375 275.101562 75.335938 275.101562 83 C 275.101562 90.664062 278.144531 98.015625 283.566406 103.433594 C 288.984375 108.855469 296.335938 111.898438 304 111.898438 C 311.664062 111.898438 319.015625 108.855469 324.433594 103.433594 C 329.855469 98.015625 332.898438 90.664062 332.898438 83 Z M 332.898438 83 "/>
<path style=" stroke:none;fill-rule:evenodd;fill:rgb(54.191589%,91.743469%,24.557495%);fill-opacity:0.1;" d="M 154.589844 104 C 154.589844 96.949219 151.789062 90.183594 146.800781 85.199219 C 141.816406 80.210938 135.050781 77.410156 128 77.410156 C 120.949219 77.410156 114.183594 80.210938 109.199219 85.199219 C 104.210938 90.183594 101.410156 96.949219 101.410156 104 C 101.410156 111.050781 104.210938 117.816406 109.199219 122.800781 C 114.183594 127.789062 120.949219 130.589844 128 130.589844 C 135.050781 130.589844 141.816406 127.789062 146.800781 122.800781 C 151.789062 117.816406 154.589844 111.050781 154.589844 104 Z M 154.589844 104 "/>
<path style=" stroke:none;fill-rule:evenodd;fill:rgb(76.626587%,64.402771%,94.12384%);fill-opacity:0.1;" d="M 175.097656 278 C 175.097656 277.179688 174.773438 276.390625 174.191406 275.808594 C 173.609375 275.226562 172.820312 274.902344 172 274.902344 C 171.179688 274.902344 170.390625 275.226562 169.808594 275.808594 C 169.226562 276.390625 168.902344 277.179688 168.902344 278 C 168.902344 278.820312 169.226562 279.609375 169.808594 280.191406 C 170.390625 280.773438 171.179688 281.097656 172 281.097656 C 172.820312 281.097656 173.609375 280.773438 174.191406 280.191406 C 174.773438 279.609375 175.097656 278.820312 175.097656 278 Z M 175.097656 278 "/>
<path style=" stroke:none;fill-rule:evenodd;fill:rgb(6.097412%,78.78418%,69.91272%);fill-opacity:0.1;" d="M 119.570312 305 C 119.570312 302.726562 118.664062 300.546875 117.058594 298.941406 C 115.453125 297.335938 113.273438 296.429688 111 296.429688 C 108.726562 296.429688 106.546875 297.335938 104.941406 298.941406 C 103.335938 300.546875 102.429688 302.726562 102.429688 305 C 102.429688 307.273438 103.335938 309.453125 104.941406 311.058594 C 106.546875 312.664062 108.726562 313.570312 111 313.570312 C 113.273438 313.570312 115.453125 312.664062 117.058594 311.058594 C 118.664062 309.453125 119.570312 307.273438 119.570312 305 Z M 119.570312 305 "/>
<path style=" stroke:none;fill-rule:evenodd;fill:rgb(10.165405%,19.929504%,42.677307%);fill-opacity:0.1;" d="M 328.871094 205 C 328.871094 202.117188 327.726562 199.351562 325.6875 197.3125 C 323.648438 195.273438 320.882812 194.128906 318 194.128906 C 315.117188 194.128906 312.351562 195.273438 310.3125 197.3125 C 308.273438 199.351562 307.128906 202.117188 307.128906 205 C 307.128906 207.882812 308.273438 210.648438 310.3125 212.6875 C 312.351562 214.726562 315.117188 215.871094 318 215.871094 C 320.882812 215.871094 323.648438 214.726562 325.6875 212.6875 C 327.726562 210.648438 328.871094 207.882812 328.871094 205 Z M 328.871094 205 "/>
<path style=" stroke:none;fill-rule:evenodd;fill:rgb(20.480347%,97.949219%,67.433167%);fill-opacity:0.1;" d="M 258.371094 163 C 258.371094 161.839844 257.910156 160.726562 257.089844 159.910156 C 256.273438 159.089844 255.160156 158.628906 254 158.628906 C 252.839844 158.628906 251.726562 159.089844 250.910156 159.910156 C 250.089844 160.726562 249.628906 161.839844 249.628906 163 C 249.628906 164.160156 250.089844 165.273438 250.910156 166.089844 C 251.726562 166.910156 252.839844 167.371094 254 167.371094 C 255.160156 167.371094 256.273438 166.910156 257.089844 166.089844 C 257.910156 165.273438 258.371094 164.160156 258.371094 163 Z M 258.371094 163 "/>
<path style=" stroke:none;fill-rule:evenodd;fill:rgb(50.416565%,59.965515%,7.917786%);fill-opacity:0.1;" d="M 299.386719 208 C 299.386719 202.0625 297.027344 196.367188 292.828125 192.171875 C 288.632812 187.972656 282.9375 185.613281 277 185.613281 C 271.0625 185.613281 265.367188 187.972656 261.171875 192.171875 C 256.972656 196.367188 254.613281 202.0625 254.613281 208 C 254.613281 213.9375 256.972656 219.632812 261.171875 223.828125 C 265.367188 228.027344 271.0625 230.386719 277 230.386719 C 282.9375 230.386719 288.632812 228.027344 292.828125 223.828125 C 297.027344 219.632812 299.386719 213.9375 299.386719 208 Z M 299.386719 208 "/>
<path style=" stroke:none;fill-rule:evenodd;fill:rgb(67.233276%,6.539917%,15.310669%);fill-opacity:0.1;" d="M 220.175781 312 C 220.175781 305.851562 217.734375 299.957031 213.386719 295.613281 C 209.042969 291.265625 203.148438 288.824219 197 288.824219 C 190.851562 288.824219 184.957031 291.265625 180.613281 295.613281 C 176.265625 299.957031 173.824219 305.851562 173.824219 312 C 173.824219 318.148438 176.265625 324.042969 180.613281 328.386719 C 184.957031 332.734375 190.851562 335.175781 197 335.175781 C 203.148438 335.175781 209.042969 332.734375 213.386719 328.386719 C 217.734375 324.042969 220.175781 318.148438 220.175781 312 Z M 220.175781 312 "/>
<path style=" stroke:none;fill-rule:evenodd;fill:rgb(24.751282%,12.374878%,4.884338%);fill-opacity:0.1;" d="M 133.894531 107 C 133.894531 96.417969 129.691406 86.273438 122.210938 78.789062 C 114.726562 71.308594 104.582031 67.105469 94 67.105469 C 83.417969 67.105469 73.273438 71.308594 65.789062 78.789062 C 58.308594 86.273438 54.105469 96.417969 54.105469 107 C 54.105469 117.582031 58.308594 127.726562 65.789062 135.210938 C 73.273438 142.691406 83.417969 146.894531 94 146.894531 C 104.582031 146.894531 114.726562 142.691406 122.210938 135.210938 C 129.691406 127.726562 133.894531 117.582031 133.894531 107 Z M 133.894531 107 "/>
<path style=" stroke:none;fill-rule:evenodd;fill:rgb(92.033386%,84.881592%,90.734863%);fill-opacity:0.1;" d="M 337.601562 273 C 337.601562 268.863281 335.957031 264.894531 333.03125 261.96875 C 330.105469 259.042969 326.136719 257.398438 322 257.398438 C 317.863281 257.398438 313.894531 259.042969 310.96875 261.96875 C 308.042969 264.894531 306.398438 268.863281 306.398438 273 C 306.398438 277.136719 308.042969 281.105469 310.96875 284.03125 C 313.894531 286.957031 317.863281 288.601562 322 288.601562 C 326.136719 288.601562 330.105469 286.957031 333.03125 284.03125 C 335.957031 281.105469 337.601562 277.136719 337.601562 273 Z M 337.601562 273 "/>
<path style=" stroke:none;fill-rule:evenodd;fill:rgb(30.54657%,16.114807%,51.626587%);fill-opacity:0.1;" d="M 288.507812 257 C 288.507812 253.152344 286.980469 249.460938 284.257812 246.742188 C 281.539062 244.019531 277.847656 242.492188 274 242.492188 C 270.152344 242.492188 266.460938 244.019531 263.742188 246.742188 C 261.019531 249.460938 259.492188 253.152344 259.492188 257 C 259.492188 260.847656 261.019531 264.539062 263.742188 267.257812 C 266.460938 269.980469 270.152344 271.507812 274 271.507812 C 277.847656 271.507812 281.539062 269.980469 284.257812 267.257812 C 286.980469 264.539062 288.507812 260.847656 288.507812 257 Z M 288.507812 257 "/>
<path style=" stroke:none;fill-rule:evenodd;fill:rgb(39.503479%,70.359802%,75.737%);fill-opacity:0.1;" d="M 309.539062 121 C 309.539062 115.285156 307.269531 109.808594 303.230469 105.769531 C 299.191406 101.730469 293.714844 99.460938 288 99.460938 C 282.285156 99.460938 276.808594 101.730469 272.769531 105.769531 C 268.730469 109.808594 266.460938 115.285156 266.460938 121 C 266.460938 126.714844 268.730469 132.191406 272.769531 136.230469 C 276.808594 140.269531 282.285156 142.539062 288 142.539062 C 293.714844 142.539062 299.191406 140.269531 303.230469 136.230469 C 307.269531 132.191406 309.539062 126.714844 309.539062 121 Z M 309.539062 121 "/>
<path style=" stroke:none;fill-rule:evenodd;fill:rgb(79.289246%,91.508484%,85.137939%);fill-opacity:0.1;" d="M 91.710938 177 C 91.710938 173.097656 90.160156 169.355469 87.402344 166.597656 C 84.644531 163.839844 80.902344 162.289062 77 162.289062 C 73.097656 162.289062 69.355469 163.839844 66.597656 166.597656 C 63.839844 169.355469 62.289062 173.097656 62.289062 177 C 62.289062 180.902344 63.839844 184.644531 66.597656 187.402344 C 69.355469 190.160156 73.097656 191.710938 77 191.710938 C 80.902344 191.710938 84.644531 190.160156 87.402344 187.402344 C 90.160156 184.644531 91.710938 180.902344 91.710938 177 Z M 91.710938 177 "/>
<path style=" stroke:none;fill-rule:evenodd;fill:rgb(48.974609%,9.567261%,15.103149%);fill-opacity:0.1;" d="M 265.085938 302 C 265.085938 293.753906 261.8125 285.847656 255.980469 280.019531 C 250.152344 274.1875 242.246094 270.914062 234 270.914062 C 225.753906 270.914062 217.847656 274.1875 212.019531 280.019531 C 206.1875 285.847656 202.914062 293.753906 202.914062 302 C 202.914062 310.246094 206.1875 318.152344 212.019531 323.980469 C 217.847656 329.8125 225.753906 333.085938 234 333.085938 C 242.246094 333.085938 250.152344 329.8125 255.980469 323.980469 C 261.8125 318.152344 265.085938 310.246094 265.085938 302 Z M 265.085938 302 "/>
<path style=" stroke:none;fill-rule:evenodd;fill:rgb(63.368225%,87.193298%,22.531128%);fill-opacity:0.1;" d="M 156.300781 173 C 156.300781 169.738281 155.003906 166.609375 152.695312 164.304688 C 150.390625 161.996094 147.261719 160.699219 144 160.699219 C 140.738281 160.699219 137.609375 161.996094 135.304688 164.304688 C 132.996094 166.609375 131.699219 169.738281 131.699219 173 C 131.699219 176.261719 132.996094 179.390625 135.304688 181.695312 C 137.609375 184.003906 140.738281 185.300781 144 185.300781 C 147.261719 185.300781 150.390625 184.003906 152.695312 181.695312 C 155.003906 179.390625 156.300781 176.261719 156.300781 173 Z M 156.300781 173 "/>
<path style=" stroke:none;fill-rule:evenodd;fill:rgb(95.513916%,57.423401%,81.486511%);fill-opacity:0.1;" d="M 241.175781 204 C 241.175781 196.527344 238.207031 189.363281 232.921875 184.078125 C 227.636719 178.792969 220.472656 175.824219 213 175.824219 C 205.527344 175.824219 198.363281 178.792969 193.078125 184.078125 C 187.792969 189.363281 184.824219 196.527344 184.824219 204 C 184.824219 211.472656 187.792969 218.636719 193.078125 223.921875 C 198.363281 229.207031 205.527344 232.175781 213 232.175781 C 220.472656 232.175781 227.636719 229.207031 232.921875 223.921875 C 238.207031 218.636719 241.175781 211.472656 241.175781 204 Z M 241.175781 204 "/>
<path style=" stroke:none;fill-rule:evenodd;fill:rgb(65.197754%,9.222412%,11.827087%);fill-opacity:0.1;" d="M 166.734375 52 C 166.734375 44.644531 163.8125 37.589844 158.609375 32.390625 C 153.410156 27.1875 146.355469 24.265625 139 24.265625 C 131.644531 24.265625 124.589844 27.1875 119.390625 32.390625 C 114.1875 37.589844 111.265625 44.644531 111.265625 52 C 111.265625 59.355469 114.1875 66.410156 119.390625 71.609375 C 124.589844 76.8125 131.644531 79.734375 139 79.734375 C 146.355469 79.734375 153.410156 76.8125 158.609375 71.609375 C 163.8125 66.410156 166.734375 59.355469 166.734375 52 Z M 166.734375 52 "/>
<path style=" stroke:none;fill-rule:evenodd;fill:rgb(92.405701%,3.895569%,82.313538%);fill-opacity:0.1;" d="M 300.648438 208 C 300.648438 207.828125 300.578125 207.664062 300.457031 207.542969 C 300.335938 207.421875 300.171875 207.351562 300 207.351562 C 299.828125 207.351562 299.664062 207.421875 299.542969 207.542969 C 299.421875 207.664062 299.351562 207.828125 299.351562 208 C 299.351562 208.171875 299.421875 208.335938 299.542969 208.457031 C 299.664062 208.578125 299.828125 208.648438 300 208.648438 C 300.171875 208.648438 300.335938 208.578125 300.457031 208.457031 C 300.578125 208.335938 300.648438 208.171875 300.648438 208 Z M 300.648438 208 "/>
<path style=" stroke:none;fill-rule:evenodd;fill:rgb(82.937622%,10.720825%,99.539185%);fill-opacity:0.1;" d="M 212.078125 33 C 212.078125 32.183594 211.753906 31.402344 211.175781 30.824219 C 210.597656 30.246094 209.816406 29.921875 209 29.921875 C 208.183594 29.921875 207.402344 30.246094 206.824219 30.824219 C 206.246094 31.402344 205.921875 32.183594 205.921875 33 C 205.921875 33.816406 206.246094 34.597656 206.824219 35.175781 C 207.402344 35.753906 208.183594 36.078125 209 36.078125 C 209.816406 36.078125 210.597656 35.753906 211.175781 35.175781 C 211.753906 34.597656 212.078125 33.816406 212.078125 33 Z M 212.078125 33 "/>
<path style=" stroke:none;fill-rule:evenodd;fill:rgb(58.811951%,56.773376%,92.344666%);fill-opacity:0.1;" d="M 77.59375 64 C 77.59375 58.804688 75.53125 53.820312 71.855469 50.144531 C 68.179688 46.46875 63.195312 44.40625 58 44.40625 C 52.804688 44.40625 47.820312 46.46875 44.144531 50.144531 C 40.46875 53.820312 38.40625 58.804688 38.40625 64 C 38.40625 69.195312 40.46875 74.179688 44.144531 77.855469 C 47.820312 81.53125 52.804688 83.59375 58 83.59375 C 63.195312 83.59375 68.179688 81.53125 71.855469 77.855469 C 75.53125 74.179688 77.59375 69.195312 77.59375 64 Z M 77.59375 64 "/>
<path style=" stroke:none;fill-rule:evenodd;fill:rgb(88.395691%,89.808655%,10.78186%);fill-opacity:0.1;" d="M 268.164062 194 C 268.164062 189.980469 266.566406 186.121094 263.722656 183.277344 C 260.878906 180.433594 257.019531 178.835938 253 178.835938 C 248.980469 178.835938 245.121094 180.433594 242.277344 183.277344 C 239.433594 186.121094 237.835938 189.980469 237.835938 194 C 237.835938 198.019531 239.433594 201.878906 242.277344 204.722656 C 245.121094 207.566406 248.980469 209.164062 253 209.164062 C 257.019531 209.164062 260.878906 207.566406 263.722656 204.722656 C 266.566406 201.878906 268.164062 198.019531 268.164062 194 Z M 268.164062 194 "/>
<path style=" stroke:none;fill-rule:evenodd;fill:rgb(80.999756%,42.692566%,74.557495%);fill-opacity:0.1;" d="M 176.75 191 C 176.75 187.351562 175.300781 183.855469 172.722656 181.277344 C 170.144531 178.699219 166.648438 177.25 163 177.25 C 159.351562 177.25 155.855469 178.699219 153.277344 181.277344 C 150.699219 183.855469 149.25 187.351562 149.25 191 C 149.25 194.648438 150.699219 198.144531 153.277344 200.722656 C 155.855469 203.300781 159.351562 204.75 163 204.75 C 166.648438 204.75 170.144531 203.300781 172.722656 200.722656 C 175.300781 198.144531 176.75 194.648438 176.75 191 Z M 176.75 191 "/>
<path style=" stroke:none;fill-rule:evenodd;fill:rgb(77.49939%,63.645935%,49.993896%);fill-opacity:0.1;" d="M 223.96875 94 C 223.96875 82.871094 219.546875 72.195312 211.675781 64.324219 C 203.804688 56.453125 193.128906 52.03125 182 52.03125 C 170.871094 52.03125 160.195312 56.453125 152.324219 64.324219 C 144.453125 72.195312 140.03125 82.871094 140.03125 94 C 140.03125 105.128906 144.453125 115.804688 152.324219 123.675781 C 160.195312 131.546875 170.871094 135.96875 182 135.96875 C 193.128906 135.96875 203.804688 131.546875 211.675781 123.675781 C 219.546875 115.804688 223.96875 105.128906 223.96875 94 Z M 223.96875 94 "/>
<path style=" stroke:none;fill-rule:evenodd;fill:rgb(34.146118%,47.7005%,81.642151%);fill-opacity:0.1;" d="M 128.265625 173 C 128.265625 166.828125 125.816406 160.910156 121.453125 156.546875 C 117.089844 152.183594 111.171875 149.734375 105 149.734375 C 98.828125 149.734375 92.910156 152.183594 88.546875 156.546875 C 84.183594 160.910156 81.734375 166.828125 81.734375 173 C 81.734375 179.171875 84.183594 185.089844 88.546875 189.453125 C 92.910156 193.816406 98.828125 196.265625 105 196.265625 C 111.171875 196.265625 117.089844 193.816406 121.453125 189.453125 C 125.816406 185.089844 128.265625 179.171875 128.265625 173 Z M 128.265625 173 "/>
<path style=" stroke:none;fill-rule:evenodd;fill:rgb(85.656738%,68.507385%,67.260742%);fill-opacity:0.1;" d="M 303.9375 184 C 303.9375 183.75 303.839844 183.511719 303.664062 183.335938 C 303.488281 183.160156 303.25 183.0625 303 183.0625 C 302.75 183.0625 302.511719 183.160156 302.335938 183.335938 C 302.160156 183.511719 302.0625 183.75 302.0625 184 C 302.0625 184.25 302.160156 184.488281 302.335938 184.664062 C 302.511719 184.839844 302.75 184.9375 303 184.9375 C 303.25 184.9375 303.488281 184.839844 303.664062 184.664062 C 303.839844 184.488281 303.9375 184.25 303.9375 184 Z M 303.9375 184 "/>
<path style=" stroke:none;fill-rule:evenodd;fill:rgb(9.73053%,40.87677%,11.003113%);fill-opacity:0.1;" d="M 186.039062 37 C 186.039062 36.988281 186.035156 36.980469 186.027344 36.972656 C 186.019531 36.964844 186.011719 36.960938 186 36.960938 C 185.988281 36.960938 185.980469 36.964844 185.972656 36.972656 C 185.964844 36.980469 185.960938 36.988281 185.960938 37 C 185.960938 37.011719 185.964844 37.019531 185.972656 37.027344 C 185.980469 37.035156 185.988281 37.039062 186 37.039062 C 186.011719 37.039062 186.019531 37.035156 186.027344 37.027344 C 186.035156 37.019531 186.039062 37.011719 186.039062 37 Z M 186.039062 37 "/>
<path style=" stroke:none;fill-rule:evenodd;fill:rgb(41.63208%,3.436279%,59.317017%);fill-opacity:0.1;" d="M 87.808594 218 C 87.808594 217.519531 87.617188 217.0625 87.277344 216.722656 C 86.9375 216.382812 86.480469 216.191406 86 216.191406 C 85.519531 216.191406 85.0625 216.382812 84.722656 216.722656 C 84.382812 217.0625 84.191406 217.519531 84.191406 218 C 84.191406 218.480469 84.382812 218.9375 84.722656 219.277344 C 85.0625 219.617188 85.519531 219.808594 86 219.808594 C 86.480469 219.808594 86.9375 219.617188 87.277344 219.277344 C 87.617188 218.9375 87.808594 218.480469 87.808594 218 Z M 87.808594 218 "/>
<path style=" stroke:none;fill-rule:evenodd;fill:rgb(92.843628%,91.950989%,60.47821%);fill-opacity:0.1;" d="M 76.535156 191 C 76.535156 184.757812 74.054688 178.773438 69.640625 174.359375 C 65.226562 169.945312 59.242188 167.464844 53 167.464844 C 46.757812 167.464844 40.773438 169.945312 36.359375 174.359375 C 31.945312 178.773438 29.464844 184.757812 29.464844 191 C 29.464844 197.242188 31.945312 203.226562 36.359375 207.640625 C 40.773438 212.054688 46.757812 214.535156 53 214.535156 C 59.242188 214.535156 65.226562 212.054688 69.640625 207.640625 C 74.054688 203.226562 76.535156 197.242188 76.535156 191 Z M 76.535156 191 "/>
<path style=" stroke:none;fill-rule:evenodd;fill:rgb(8.665466%,98.265076%,64.151001%);fill-opacity:0.1;" d="M 246.421875 102 C 246.421875 96.582031 244.273438 91.386719 240.441406 87.558594 C 236.613281 83.726562 231.417969 81.578125 226 81.578125 C 220.582031 81.578125 215.386719 83.726562 211.558594 87.558594 C 207.726562 91.386719 205.578125 96.582031 205.578125 102 C 205.578125 107.417969 207.726562 112.613281 211.558594 116.441406 C 215.386719 120.273438 220.582031 122.421875 226 122.421875 C 231.417969 122.421875 236.613281 120.273438 240.441406 116.441406 C 244.273438 112.613281 246.421875 107.417969 246.421875 102 Z M 246.421875 102 "/>
<path style=" stroke:none;fill-rule:evenodd;fill:rgb(35.804749%,13.781738%,97.233582%);fill-opacity:0.1;" d="M 199.765625 296 C 199.765625 293.675781 198.84375 291.445312 197.199219 289.800781 C 195.554688 288.15625 193.324219 287.234375 191 287.234375 C 188.675781 287.234375 186.445312 288.15625 184.800781 289.800781 C 183.15625 291.445312 182.234375 293.675781 182.234375 296 C 182.234375 298.324219 183.15625 300.554688 184.800781 302.199219 C 186.445312 303.84375 188.675781 304.765625 191 304.765625 C 193.324219 304.765625 195.554688 303.84375 197.199219 302.199219 C 198.84375 300.554688 199.765625 298.324219 199.765625 296 Z M 199.765625 296 "/>
<path style=" stroke:none;fill-rule:evenodd;fill:rgb(66.012573%,94.363403%,12.789917%);fill-opacity:0.1;" d="M 200.359375 204 C 200.359375 193.828125 196.316406 184.070312 189.125 176.875 C 181.929688 169.683594 172.171875 165.640625 162 165.640625 C 151.828125 165.640625 142.070312 169.683594 134.875 176.875 C 127.683594 184.070312 123.640625 193.828125 123.640625 204 C 123.640625 214.171875 127.683594 223.929688 134.875 231.125 C 142.070312 238.316406 151.828125 242.359375 162 242.359375 C 172.171875 242.359375 181.929688 238.316406 189.125 231.125 C 196.316406 223.929688 200.359375 214.171875 200.359375 204 Z M 200.359375 204 "/>
<path style=" stroke:none;fill-rule:evenodd;fill:rgb(6.970215%,28.662109%,28.250122%);fill-opacity:0.1;" d="M 274.402344 243 C 274.402344 238.386719 272.566406 233.957031 269.304688 230.695312 C 266.042969 227.433594 261.613281 225.597656 257 225.597656 C 252.386719 225.597656 247.957031 227.433594 244.695312 230.695312 C 241.433594 233.957031 239.597656 238.386719 239.597656 243 C 239.597656 247.613281 241.433594 252.042969 244.695312 255.304688 C 247.957031 258.566406 252.386719 260.402344 257 260.402344 C 261.613281 260.402344 266.042969 258.566406 269.304688 255.304688 C 272.566406 252.042969 274.402344 247.613281 274.402344 243 Z M 274.402344 243 "/>
<path style=" stroke:none;fill-rule:evenodd;fill:rgb(97.164917%,31.80542%,74.838257%);fill-opacity:0.1;" d="M 95.023438 141 C 95.023438 136.21875 93.125 131.636719 89.746094 128.253906 C 86.363281 124.875 81.78125 122.976562 77 122.976562 C 72.21875 122.976562 67.636719 124.875 64.253906 128.253906 C 60.875 131.636719 58.976562 136.21875 58.976562 141 C 58.976562 145.78125 60.875 150.363281 64.253906 153.746094 C 67.636719 157.125 72.21875 159.023438 77 159.023438 C 81.78125 159.023438 86.363281 157.125 89.746094 153.746094 C 93.125 150.363281 95.023438 145.78125 95.023438 141 Z M 95.023438 141 "/>
<path style=" stroke:none;fill-rule:evenodd;fill:rgb(34.580994%,20.533752%,23.388672%);fill-opacity:0.1;" d="M 276.429688 104 C 276.429688 96.195312 273.328125 88.710938 267.808594 83.191406 C 262.289062 77.671875 254.804688 74.570312 247 74.570312 C 239.195312 74.570312 231.710938 77.671875 226.191406 83.191406 C 220.671875 88.710938 217.570312 96.195312 217.570312 104 C 217.570312 111.804688 220.671875 119.289062 226.191406 124.808594 C 231.710938 130.328125 239.195312 133.429688 247 133.429688 C 254.804688 133.429688 262.289062 130.328125 267.808594 124.808594 C 273.328125 119.289062 276.429688 111.804688 276.429688 104 Z M 276.429688 104 "/>
<path style=" stroke:none;fill-rule:evenodd;fill:rgb(22.387695%,31.019592%,73.242188%);fill-opacity:0.1;" d="M 232.140625 87 C 232.140625 76.886719 228.121094 67.183594 220.96875 60.03125 C 213.816406 52.878906 204.113281 48.859375 194 48.859375 C 183.886719 48.859375 174.183594 52.878906 167.03125 60.03125 C 159.878906 67.183594 155.859375 76.886719 155.859375 87 C 155.859375 97.113281 159.878906 106.816406 167.03125 113.96875 C 174.183594 121.121094 183.886719 125.140625 194 125.140625 C 204.113281 125.140625 213.816406 121.121094 220.96875 113.96875 C 228.121094 106.816406 232.140625 97.113281 232.140625 87 Z M 232.140625 87 "/>
<path style=" stroke:none;fill-rule:evenodd;fill:rgb(13.105774%,58.587646%,73.930359%);fill-opacity:0.1;" d="M 189.34375 296 C 189.34375 285.566406 185.199219 275.558594 177.820312 268.179688 C 170.441406 260.800781 160.433594 256.65625 150 256.65625 C 139.566406 256.65625 129.558594 260.800781 122.179688 268.179688 C 114.800781 275.558594 110.65625 285.566406 110.65625 296 C 110.65625 306.433594 114.800781 316.441406 122.179688 323.820312 C 129.558594 331.199219 139.566406 335.34375 150 335.34375 C 160.433594 335.34375 170.441406 331.199219 177.820312 323.820312 C 185.199219 316.441406 189.34375 306.433594 189.34375 296 Z M 189.34375 296 "/>
<path style=" stroke:none;fill-rule:evenodd;fill:rgb(32.865906%,42.747498%,66.822815%);fill-opacity:0.1;" d="M 278.132812 244 C 278.132812 239.988281 276.539062 236.136719 273.699219 233.300781 C 270.863281 230.460938 267.011719 228.867188 263 228.867188 C 258.988281 228.867188 255.136719 230.460938 252.300781 233.300781 C 249.460938 236.136719 247.867188 239.988281 247.867188 244 C 247.867188 248.011719 249.460938 251.863281 252.300781 254.699219 C 255.136719 257.539062 258.988281 259.132812 263 259.132812 C 267.011719 259.132812 270.863281 257.539062 273.699219 254.699219 C 276.539062 251.863281 278.132812 248.011719 278.132812 244 Z M 278.132812 244 "/>
<path style=" stroke:none;fill-rule:evenodd;fill:rgb(89.709473%,95.840454%,20.977783%);fill-opacity:0.1;" d="M 79.9375 97 C 79.9375 89.589844 76.992188 82.484375 71.753906 77.246094 C 66.515625 72.007812 59.410156 69.0625 52 69.0625 C 44.589844 69.0625 37.484375 72.007812 32.246094 77.246094 C 27.007812 82.484375 24.0625 89.589844 24.0625 97 C 24.0625 104.410156 27.007812 111.515625 32.246094 116.753906 C 37.484375 121.992188 44.589844 124.9375 52 124.9375 C 59.410156 124.9375 66.515625 121.992188 71.753906 116.753906 C 76.992188 111.515625 79.9375 104.410156 79.9375 97 Z M 79.9375 97 "/>
<path style=" stroke:none;fill-rule:evenodd;fill:rgb(15.405273%,47.706604%,54.28772%);fill-opacity:0.1;" d="M 295.058594 196 C 295.058594 192.535156 293.683594 189.214844 291.234375 186.765625 C 288.785156 184.316406 285.464844 182.941406 282 182.941406 C 278.535156 182.941406 275.214844 184.316406 272.765625 186.765625 C 270.316406 189.214844 268.941406 192.535156 268.941406 196 C 268.941406 199.464844 270.316406 202.785156 272.765625 205.234375 C 275.214844 207.683594 278.535156 209.058594 282 209.058594 C 285.464844 209.058594 288.785156 207.683594 291.234375 205.234375 C 293.683594 202.785156 295.058594 199.464844 295.058594 196 Z M 295.058594 196 "/>
<path style=" stroke:none;fill-rule:evenodd;fill:rgb(59.339905%,93.431091%,63.412476%);fill-opacity:0.1;" d="M 224.203125 191 C 224.203125 181.398438 220.390625 172.1875 213.601562 165.398438 C 206.8125 158.609375 197.601562 154.796875 188 154.796875 C 178.398438 154.796875 169.1875 158.609375 162.398438 165.398438 C 155.609375 172.1875 151.796875 181.398438 151.796875 191 C 151.796875 200.601562 155.609375 209.8125 162.398438 216.601562 C 169.1875 223.390625 178.398438 227.203125 188 227.203125 C 197.601562 227.203125 206.8125 223.390625 213.601562 216.601562 C 220.390625 209.8125 224.203125 200.601562 224.203125 191 Z M 224.203125 191 "/>
<path style=" stroke:none;fill-rule:evenodd;fill:rgb(47.969055%,20.976257%,23.796082%);fill-opacity:0.1;" d="M 187.507812 134 C 187.507812 123.523438 183.34375 113.472656 175.933594 106.066406 C 168.527344 98.65625 158.476562 94.492188 148 94.492188 C 137.523438 94.492188 127.472656 98.65625 120.066406 106.066406 C 112.65625 113.472656 108.492188 123.523438 108.492188 134 C 108.492188 144.476562 112.65625 154.527344 120.066406 161.933594 C 127.472656 169.34375 137.523438 173.507812 148 173.507812 C 158.476562 173.507812 168.527344 169.34375 175.933594 161.933594 C 183.34375 154.527344 187.507812 144.476562 187.507812 134 Z M 187.507812 134 "/>
<path style=" stroke:none;fill-rule:evenodd;fill:rgb(72.695923%,56.330872%,7.487488%);fill-opacity:0.1;" d="M 154.921875 124 C 154.921875 118.449219 152.71875 113.128906 148.796875 109.203125 C 144.871094 105.28125 139.550781 103.078125 134 103.078125 C 128.449219 103.078125 123.128906 105.28125 119.203125 109.203125 C 115.28125 113.128906 113.078125 118.449219 113.078125 124 C 113.078125 129.550781 115.28125 134.871094 119.203125 138.796875 C 123.128906 142.71875 128.449219 144.921875 134 144.921875 C 139.550781 144.921875 144.871094 142.71875 148.796875 138.796875 C 152.71875 134.871094 154.921875 129.550781 154.921875 124 Z M 154.921875 124 "/>
<path style=" stroke:none;fill-rule:evenodd;fill:rgb(47.036743%,0.872803%,33.64563%);fill-opacity:0.1;" d="M 273.722656 68 C 273.722656 63.566406 271.960938 59.3125 268.824219 56.175781 C 265.6875 53.039062 261.433594 51.277344 257 51.277344 C 252.566406 51.277344 248.3125 53.039062 245.175781 56.175781 C 242.039062 59.3125 240.277344 63.566406 240.277344 68 C 240.277344 72.433594 242.039062 76.6875 245.175781 79.824219 C 248.3125 82.960938 252.566406 84.722656 257 84.722656 C 261.433594 84.722656 265.6875 82.960938 268.824219 79.824219 C 271.960938 76.6875 273.722656 72.433594 273.722656 68 Z M 273.722656 68 "/>
<path style=" stroke:none;fill-rule:evenodd;fill:rgb(18.548584%,20.3125%,96.405029%);fill-opacity:0.1;" d="M 227.699219 77 C 227.699219 66.46875 223.519531 56.371094 216.074219 48.925781 C 208.628906 41.480469 198.53125 37.300781 188 37.300781 C 177.46875 37.300781 167.371094 41.480469 159.925781 48.925781 C 152.480469 56.371094 148.300781 66.46875 148.300781 77 C 148.300781 87.53125 152.480469 97.628906 159.925781 105.074219 C 167.371094 112.519531 177.46875 116.699219 188 116.699219 C 198.53125 116.699219 208.628906 112.519531 216.074219 105.074219 C 223.519531 97.628906 227.699219 87.53125 227.699219 77 Z M 227.699219 77 "/>
<path style=" stroke:none;fill-rule:evenodd;fill:rgb(64.202881%,5.308533%,67.984009%);fill-opacity:0.1;" d="M 261.214844 110 C 261.214844 100.394531 257.398438 91.183594 250.609375 84.390625 C 243.816406 77.601562 234.605469 73.785156 225 73.785156 C 215.394531 73.785156 206.183594 77.601562 199.390625 84.390625 C 192.601562 91.183594 188.785156 100.394531 188.785156 110 C 188.785156 119.605469 192.601562 128.816406 199.390625 135.609375 C 206.183594 142.398438 215.394531 146.214844 225 146.214844 C 234.605469 146.214844 243.816406 142.398438 250.609375 135.609375 C 257.398438 128.816406 261.214844 119.605469 261.214844 110 Z M 261.214844 110 "/>
<path style=" stroke:none;fill-rule:evenodd;fill:rgb(88.587952%,98.924255%,44.558716%);fill-opacity:0.1;" d="M 317.167969 204 C 317.167969 196 313.988281 188.324219 308.332031 182.667969 C 302.675781 177.011719 295 173.832031 287 173.832031 C 279 173.832031 271.324219 177.011719 265.667969 182.667969 C 260.011719 188.324219 256.832031 196 256.832031 204 C 256.832031 212 260.011719 219.675781 265.667969 225.332031 C 271.324219 230.988281 279 234.167969 287 234.167969 C 295 234.167969 302.675781 230.988281 308.332031 225.332031 C 313.988281 219.675781 317.167969 212 317.167969 204 Z M 317.167969 204 "/>
<path style=" stroke:none;fill-rule:evenodd;fill:rgb(72.279358%,32.429504%,80.403137%);fill-opacity:0.1;" d="M 295.496094 35 C 295.496094 30.625 293.757812 26.429688 290.664062 23.335938 C 287.570312 20.242188 283.375 18.503906 279 18.503906 C 274.625 18.503906 270.429688 20.242188 267.335938 23.335938 C 264.242188 26.429688 262.503906 30.625 262.503906 35 C 262.503906 39.375 264.242188 43.570312 267.335938 46.664062 C 270.429688 49.757812 274.625 51.496094 279 51.496094 C 283.375 51.496094 287.570312 49.757812 290.664062 46.664062 C 293.757812 43.570312 295.496094 39.375 295.496094 35 Z M 295.496094 35 "/>
<path style=" stroke:none;fill-rule:evenodd;fill:rgb(66.281128%,2.668762%,85.980225%);fill-opacity:0.1;" d="M 125.359375 144 C 125.359375 138.335938 123.109375 132.902344 119.105469 128.894531 C 115.097656 124.890625 109.664062 122.640625 104 122.640625 C 98.335938 122.640625 92.902344 124.890625 88.894531 128.894531 C 84.890625 132.902344 82.640625 138.335938 82.640625 144 C 82.640625 149.664062 84.890625 155.097656 88.894531 159.105469 C 92.902344 163.109375 98.335938 165.359375 104 165.359375 C 109.664062 165.359375 115.097656 163.109375 119.105469 159.105469 C 123.109375 155.097656 125.359375 149.664062 125.359375 144 Z M 125.359375 144 "/>
<path style=" stroke:none;fill-rule:evenodd;fill:rgb(99.850464%,71.443176%,30.639648%);fill-opacity:0.1;" d="M 224.859375 119 C 224.859375 112.40625 222.238281 106.085938 217.578125 101.421875 C 212.914062 96.761719 206.59375 94.140625 200 94.140625 C 193.40625 94.140625 187.085938 96.761719 182.421875 101.421875 C 177.761719 106.085938 175.140625 112.40625 175.140625 119 C 175.140625 125.59375 177.761719 131.914062 182.421875 136.578125 C 187.085938 141.238281 193.40625 143.859375 200 143.859375 C 206.59375 143.859375 212.914062 141.238281 217.578125 136.578125 C 222.238281 131.914062 224.859375 125.59375 224.859375 119 Z M 224.859375 119 "/>
</g>
</svg>
